<svg width="151" height="30" viewBox="0 0 151 30" fill="none" xmlns="http://www.w3.org/2000/svg">
<g clip-path="url(#clip0_6_20)">
<path d="M19.2245 9L26.4342 13.2V3.7L19.2245 0V9Z" fill="#2F1C6A"/>
<path d="M45.86 13.7H41.1538V8.90002H38.35V21.4H41.1538V16.1H45.86V21.4H48.6638V8.90002H45.86V13.7Z" fill="#2F1C6A"/>
<path d="M17.322 10.1H7.90947V3.8L0.799988 0V14H24.4315L17.322 10.1Z" fill="#2F1C6A"/>
<path d="M0.799988 26.1L7.90947 29.8V21.1L0.799988 16.9V26.1Z" fill="#2F1C6A"/>
<path d="M9.71188 19.8H19.1244V26.1L26.4342 30V16L2.40213 15.9C2.40213 15.8 9.71188 19.9 9.71188 19.8Z" fill="#2F1C6A"/>
<path d="M150.099 20L149.298 18.6L148.497 17.3L147.696 16.2C148.497 15.9 148.998 15.5 149.398 14.9C149.799 14.4 149.999 13.6 149.999 12.8C149.999 11.4 149.498 10.4 148.497 9.70001C147.496 9.00001 146.094 8.70001 144.191 8.70001L142.389 8.80001C141.688 8.80001 141.087 8.90001 140.486 9.00001V21.3H143.29V16.7H144.692L145.393 17.7L146.094 18.8L146.795 20L147.496 21.2H150.6L150.099 20ZM146.394 14.2C145.893 14.5 145.193 14.6 144.091 14.6H143.29V11.2H143.791H144.391C145.293 11.2 145.994 11.3 146.394 11.6C146.895 11.9 147.095 12.3 147.095 12.9C147.095 13.5 146.895 13.9 146.394 14.2Z" fill="#2F1C6A"/>
<path d="M121.561 19.1C121.361 19.1 121.16 19.2 120.96 19.2H120.159C119.558 19.2 119.058 19.1 118.657 18.9C118.257 18.7 117.856 18.4 117.556 18.1C117.255 17.7 117.055 17.3 116.955 16.8C116.855 16.3 116.755 15.7 116.755 15.1C116.755 13.8 117.055 12.8 117.656 12.1C118.257 11.4 119.158 11 120.46 11C121.06 11 121.561 11.1 122.062 11.2C122.562 11.4 122.963 11.5 123.363 11.7L124.164 9.5L123.664 9.2C123.464 9.1 123.163 9 122.863 8.9C122.462 8.8 122.062 8.7 121.661 8.6C121.16 8.5 120.66 8.5 120.059 8.5C119.258 8.5 118.357 8.6 117.656 8.9C116.955 9.2 116.254 9.6 115.653 10.2C115.052 10.8 114.652 11.4 114.351 12.2C114.051 13 113.851 13.9 113.851 15C113.851 16 113.951 16.9 114.251 17.8C114.552 18.7 114.952 19.3 115.553 19.8C116.054 20.4 116.755 20.8 117.556 21.1C118.357 21.4 119.158 21.5 120.059 21.5C121.16 21.5 122.062 21.4 122.863 21.3C123.564 21.2 124.164 21 124.465 20.9V14.7H121.661V19.1H121.561Z" fill="#2F1C6A"/>
<path d="M131.174 16H136.181V13.7H131.174V11.3H136.781V8.90002H128.27V21.4H137.182V19H131.174V16Z" fill="#2F1C6A"/>
<path d="M107.342 16.3L105.94 14.3L104.438 12.3L102.936 10.5C102.536 10 102.035 9.50002 101.634 9.00002H99.3314V21.5H102.135V13.3C103.237 14.6 104.238 15.9 105.139 17.2L107.743 21.4H110.146V8.90002H107.342V16.3Z" fill="#2F1C6A"/>
<path d="M78.9041 11.3H82.6091V21.4H85.4128V11.3H89.2179V8.90002H78.9041V11.3Z" fill="#2F1C6A"/>
<path d="M75.9001 15.3C75.5997 15 75.1992 14.7 74.6985 14.5L72.9963 13.8L72.095 13.5C71.8948 13.4 71.5944 13.3 71.3941 13.2C71.1938 13.1 70.9936 12.9 70.8934 12.8C70.7933 12.6 70.6932 12.5 70.6932 12.2C70.6932 11.8 70.7933 11.5 71.0937 11.3C71.3941 11.1 71.8948 11 72.5957 11C73.1965 11 73.6972 11.1 74.0977 11.2C74.4983 11.3 74.8988 11.5 75.2993 11.7L76.1004 9.49998C75.6999 9.29998 75.1992 9.09997 74.5984 8.89997C73.9976 8.69997 73.2967 8.59998 72.3955 8.59998C71.6945 8.59998 71.0937 8.69997 70.4929 8.89997C69.8921 9.09997 69.4916 9.29998 69.091 9.59998C68.6905 9.89998 68.3901 10.3 68.1898 10.8C67.9896 11.3 67.8894 11.8 67.8894 12.4C67.8894 13 67.9896 13.5 68.1898 13.9C68.3901 14.3 68.6905 14.6 68.9909 14.9C69.2913 15.2 69.6918 15.4 70.0924 15.6L71.294 16.1C72.1952 16.4 72.8961 16.7 73.2967 17C73.6972 17.3 73.8975 17.6 73.8975 18C73.8975 18.2 73.8975 18.4 73.7973 18.5C73.6972 18.6 73.5971 18.8 73.4969 18.9C73.2967 19 73.0964 19.1 72.8961 19.2C72.5957 19.3 72.2953 19.3 71.8948 19.3C71.0937 19.3 70.3928 19.2 69.8921 19.1C69.3914 18.9 68.8908 18.8 68.4902 18.6L67.6892 20.8L68.29 21.1C68.5904 21.2 68.8908 21.3 69.1912 21.4C69.5917 21.5 69.9922 21.6 70.3928 21.6C70.8934 21.7 71.3941 21.7 71.8948 21.7C73.4969 21.7 74.7987 21.4 75.5997 20.7C76.4008 20.1 76.8013 19.2 76.8013 18C76.8013 17.4 76.7012 16.9 76.6011 16.5C76.4008 16 76.2005 15.6 75.9001 15.3Z" fill="#2F1C6A"/>
<path d="M95.1258 8.90002H92.322V21.4H95.1258V8.90002Z" fill="#2F1C6A"/>
<path d="M62.9829 10.3C62.3821 9.70001 61.7813 9.30001 60.9802 9.10001C60.1792 8.80001 59.3781 8.70001 58.577 8.70001C57.776 8.70001 56.9749 8.80001 56.1738 9.10001C55.4729 9.40001 54.772 9.80001 54.1711 10.3C53.5703 10.8 53.1698 11.5 52.7693 12.3C52.3687 13.1 52.2686 14 52.2686 15.1C52.2686 16.2 52.4689 17.1 52.7693 17.9C53.0697 18.7 53.5704 19.4 54.071 19.9C54.6718 20.4 55.2726 20.9 56.0737 21.1C56.8748 21.4 57.6758 21.5 58.4769 21.5C59.3781 21.5 60.1792 21.4 60.9802 21.1C61.6812 20.8 62.3821 20.4 62.9829 19.9C63.5837 19.4 63.9842 18.7 64.2846 17.9C64.585 17.1 64.7853 16.2 64.7853 15.1C64.7853 14 64.585 13.1 64.2846 12.3C63.9842 11.5 63.5837 10.8 62.9829 10.3ZM61.6812 16.8C61.581 17.3 61.2806 17.7 61.0804 18.1C60.78 18.5 60.4796 18.7 60.079 18.9C59.6785 19.1 59.1778 19.2 58.6772 19.2C58.1765 19.2 57.6758 19.1 57.2753 18.9C56.8748 18.7 56.4742 18.4 56.274 18.1C55.9736 17.7 55.7733 17.3 55.573 16.8C55.3728 16.3 55.3728 15.7 55.3728 15.1C55.3728 14.5 55.4729 14 55.573 13.5C55.6732 13 55.9736 12.6 56.274 12.2C56.5744 11.8 56.8748 11.6 57.2753 11.4C57.6758 11.2 58.1765 11.1 58.6772 11.1C59.1778 11.1 59.6785 11.2 60.079 11.4C60.4796 11.6 60.8801 11.9 61.0804 12.2C61.3808 12.6 61.581 13 61.6812 13.5C61.8814 14 61.8814 14.6 61.8814 15.2C61.9816 15.7 61.8814 16.2 61.6812 16.8Z" fill="#2F1C6A"/>
</g>
<defs>
<clipPath id="clip0_6_20">
<rect width="150" height="30" fill="white" transform="translate(0.799988)"/>
</clipPath>
</defs>
</svg>
