<svg width="150" height="30" viewBox="0 0 150 30" fill="none" xmlns="http://www.w3.org/2000/svg">
<g clip-path="url(#clip0_6_223)">
<path d="M18.4246 9L25.6342 13.2V3.7L18.4246 0V9Z" fill="white"/>
<path d="M45.0601 13.7H40.3538V8.90002H37.55V21.4H40.3538V16.1H45.0601V21.4H47.8638V8.90002H45.0601V13.7Z" fill="white"/>
<path d="M16.522 10.1H7.10948V3.8L0 0V14H23.6315L16.522 10.1Z" fill="white"/>
<path d="M0 26.1L7.10948 29.8V21.1L0 16.9V26.1Z" fill="white"/>
<path d="M8.91189 19.8H18.3244V26.1L25.6342 30V16L1.60214 15.9C1.60214 15.8 8.91189 19.9 8.91189 19.8Z" fill="white"/>
<path d="M149.299 20L148.498 18.6L147.697 17.3L146.896 16.2C147.697 15.9 148.198 15.5 148.598 14.9C148.999 14.4 149.199 13.6 149.199 12.8C149.199 11.4 148.698 10.4 147.697 9.70001C146.696 9.00001 145.294 8.70001 143.391 8.70001L141.589 8.80001C140.888 8.80001 140.287 8.90001 139.686 9.00001V21.3H142.49V16.7H143.892L144.593 17.7L145.294 18.8L145.995 20L146.696 21.2H149.8L149.299 20ZM145.594 14.2C145.093 14.5 144.393 14.6 143.291 14.6H142.49V11.2H142.991H143.591C144.493 11.2 145.194 11.3 145.594 11.6C146.095 11.9 146.295 12.3 146.295 12.9C146.295 13.5 146.095 13.9 145.594 14.2Z" fill="white"/>
<path d="M120.761 19.1C120.561 19.1 120.36 19.2 120.16 19.2H119.359C118.758 19.2 118.258 19.1 117.857 18.9C117.457 18.7 117.056 18.4 116.756 18.1C116.455 17.7 116.255 17.3 116.155 16.8C116.055 16.3 115.955 15.7 115.955 15.1C115.955 13.8 116.255 12.8 116.856 12.1C117.457 11.4 118.358 11 119.66 11C120.26 11 120.761 11.1 121.262 11.2C121.762 11.4 122.163 11.5 122.563 11.7L123.364 9.5L122.864 9.2C122.664 9.1 122.363 9 122.063 8.9C121.662 8.8 121.262 8.7 120.861 8.6C120.36 8.5 119.86 8.5 119.259 8.5C118.458 8.5 117.557 8.6 116.856 8.9C116.155 9.2 115.454 9.6 114.853 10.2C114.252 10.8 113.852 11.4 113.551 12.2C113.251 13 113.051 13.9 113.051 15C113.051 16 113.151 16.9 113.451 17.8C113.752 18.7 114.152 19.3 114.753 19.8C115.254 20.4 115.955 20.8 116.756 21.1C117.557 21.4 118.358 21.5 119.259 21.5C120.36 21.5 121.262 21.4 122.063 21.3C122.764 21.2 123.364 21 123.665 20.9V14.7H120.861V19.1H120.761Z" fill="white"/>
<path d="M130.374 16H135.381V13.7H130.374V11.3H135.981V8.90002H127.47V21.4H136.382V19H130.374V16Z" fill="white"/>
<path d="M106.542 16.3L105.14 14.3L103.638 12.3L102.136 10.5C101.736 10 101.235 9.50002 100.834 9.00002H98.5314V21.5H101.335V13.3C102.437 14.6 103.438 15.9 104.339 17.2L106.943 21.4H109.346V8.90002H106.542V16.3Z" fill="white"/>
<path d="M78.1041 11.3H81.8091V21.4H84.6128V11.3H88.4179V8.90002H78.1041V11.3Z" fill="white"/>
<path d="M75.1001 15.3C74.7997 15 74.3992 14.7 73.8985 14.5L72.1963 13.8L71.2951 13.5C71.0948 13.4 70.7944 13.3 70.5941 13.2C70.3939 13.1 70.1936 12.9 70.0935 12.8C69.9933 12.6 69.8932 12.5 69.8932 12.2C69.8932 11.8 69.9933 11.5 70.2937 11.3C70.5941 11.1 71.0948 11 71.7957 11C72.3965 11 72.8972 11.1 73.2977 11.2C73.6983 11.3 74.0988 11.5 74.4993 11.7L75.3004 9.49998C74.8999 9.29998 74.3992 9.09997 73.7984 8.89997C73.1976 8.69997 72.4967 8.59998 71.5955 8.59998C70.8945 8.59998 70.2937 8.69997 69.6929 8.89997C69.0921 9.09997 68.6916 9.29998 68.2911 9.59998C67.8905 9.89998 67.5901 10.3 67.3899 10.8C67.1896 11.3 67.0895 11.8 67.0895 12.4C67.0895 13 67.1896 13.5 67.3899 13.9C67.5901 14.3 67.8905 14.6 68.1909 14.9C68.4913 15.2 68.8919 15.4 69.2924 15.6L70.494 16.1C71.3952 16.4 72.0961 16.7 72.4967 17C72.8972 17.3 73.0975 17.6 73.0975 18C73.0975 18.2 73.0975 18.4 72.9973 18.5C72.8972 18.6 72.7971 18.8 72.6969 18.9C72.4967 19 72.2964 19.1 72.0961 19.2C71.7957 19.3 71.4953 19.3 71.0948 19.3C70.2937 19.3 69.5928 19.2 69.0921 19.1C68.5915 18.9 68.0908 18.8 67.6903 18.6L66.8892 20.8L67.49 21.1C67.7904 21.2 68.0908 21.3 68.3912 21.4C68.7917 21.5 69.1923 21.6 69.5928 21.6C70.0935 21.7 70.5941 21.7 71.0948 21.7C72.6969 21.7 73.9987 21.4 74.7997 20.7C75.6008 20.1 76.0013 19.2 76.0013 18C76.0013 17.4 75.9012 16.9 75.8011 16.5C75.6008 16 75.4005 15.6 75.1001 15.3Z" fill="white"/>
<path d="M94.3258 8.90002H91.522V21.4H94.3258V8.90002Z" fill="white"/>
<path d="M62.1829 10.3C61.5821 9.70001 60.9813 9.30001 60.1802 9.10001C59.3792 8.80001 58.5781 8.70001 57.777 8.70001C56.976 8.70001 56.1749 8.80001 55.3738 9.10001C54.6729 9.40001 53.972 9.80001 53.3712 10.3C52.7704 10.8 52.3698 11.5 51.9693 12.3C51.5688 13.1 51.4686 14 51.4686 15.1C51.4686 16.2 51.6689 17.1 51.9693 17.9C52.2697 18.7 52.7704 19.4 53.271 19.9C53.8718 20.4 54.4726 20.9 55.2737 21.1C56.0748 21.4 56.8758 21.5 57.6769 21.5C58.5781 21.5 59.3792 21.4 60.1802 21.1C60.8812 20.8 61.5821 20.4 62.1829 19.9C62.7837 19.4 63.1842 18.7 63.4846 17.9C63.785 17.1 63.9853 16.2 63.9853 15.1C63.9853 14 63.785 13.1 63.4846 12.3C63.1842 11.5 62.7837 10.8 62.1829 10.3ZM60.8812 16.8C60.781 17.3 60.4806 17.7 60.2804 18.1C59.98 18.5 59.6796 18.7 59.279 18.9C58.8785 19.1 58.3778 19.2 57.8772 19.2C57.3765 19.2 56.8758 19.1 56.4753 18.9C56.0748 18.7 55.6742 18.4 55.474 18.1C55.1736 17.7 54.9733 17.3 54.773 16.8C54.5728 16.3 54.5728 15.7 54.5728 15.1C54.5728 14.5 54.6729 14 54.773 13.5C54.8732 13 55.1736 12.6 55.474 12.2C55.7744 11.8 56.0748 11.6 56.4753 11.4C56.8758 11.2 57.3765 11.1 57.8772 11.1C58.3778 11.1 58.8785 11.2 59.279 11.4C59.6796 11.6 60.0801 11.9 60.2804 12.2C60.5808 12.6 60.781 13 60.8812 13.5C61.0814 14 61.0814 14.6 61.0814 15.2C61.1816 15.7 61.0814 16.2 60.8812 16.8Z" fill="white"/>
</g>
<defs>
<clipPath id="clip0_6_223">
<rect width="150" height="30" fill="white"/>
</clipPath>
</defs>
</svg>
