<svg width="42" height="42" viewBox="0 0 42 42" fill="none" xmlns="http://www.w3.org/2000/svg">
<g clip-path="url(#clip0_17_39)">
<path d="M42 21C42 9.40202 32.598 0 21 0C9.40202 0 0 9.40202 0 21C0 32.598 9.40202 42 21 42C32.598 42 42 32.598 42 21Z" fill="#E7F0F7"/>
<path d="M13 12C11.9 12 11 12.9 11 14V26L14 23H17V26C17 27.1 17.9 28 19 28H28L31 31V19C31 17.9 30.1 17 29 17H25V14C25 12.9 24.1 12 23 12H13ZM13 14H23V21H13V14ZM25 19H29V26H19V23H23C24.1 23 25 22.1 25 21V19Z" fill="#042444"/>
<path fill-rule="evenodd" clip-rule="evenodd" d="M13 12C11.9 12 11 12.9 11 14V26L14 23H15H17H19H23C24.1 23 25 22.1 25 21V19V17V14C25 12.9 24.1 12 23 12H13ZM13 14H23V21H13V14Z" fill="#042444"/>
</g>
<defs>
<clipPath id="clip0_17_39">
<rect width="42" height="42" fill="white"/>
</clipPath>
</defs>
</svg>
