<svg width="42" height="42" viewBox="0 0 42 42" fill="none" xmlns="http://www.w3.org/2000/svg">
<g clip-path="url(#clip0_17_2)">
<path d="M42 21C42 9.40202 32.598 0 21 0C9.40202 0 0 9.40202 0 21C0 32.598 9.40202 42 21 42C32.598 42 42 32.598 42 21Z" fill="#E7F0F7"/>
<path d="M30.7125 21.3811L27.9143 20.7084L27.4569 20.5201L14.623 20.6277V26.816L30.7394 26.8429L30.7125 21.3811Z" fill="#E7F0F7"/>
<path d="M25.493 26.251C25.6276 25.7398 25.5738 25.2824 25.3316 24.9326C25.1164 24.6097 24.7397 24.4214 24.2823 24.4214L15.6187 24.3138C15.5649 24.3138 15.5111 24.2869 15.4842 24.2331C15.4573 24.1793 15.4573 24.1254 15.4573 24.0716C15.4842 23.9909 15.5649 23.9102 15.6456 23.9102L24.3899 23.8026C25.4392 23.7488 26.5424 22.9147 26.9459 21.8923L27.4571 20.6008C27.484 20.547 27.484 20.4932 27.484 20.4394C26.919 17.8834 24.659 16 21.9415 16C19.4393 16 17.3138 17.6143 16.5604 19.8475C16.0761 19.4708 15.4304 19.2825 14.7578 19.3632C13.547 19.4708 12.6053 20.4394 12.4708 21.6501C12.4439 21.973 12.4708 22.269 12.5246 22.538C10.5605 22.5918 9 24.2062 9 26.1703C9 26.3586 9.02691 26.52 9.02691 26.7084C9.02691 26.7891 9.10762 26.8429 9.18834 26.8429H25.1702C25.2509 26.8429 25.3585 26.7891 25.3854 26.6815L25.493 26.251Z" fill="#042444"/>
<path d="M28.2373 20.6815C28.1566 20.6815 28.0759 20.6815 27.9952 20.6815C27.9414 20.6815 27.8876 20.7353 27.8606 20.7891L27.5109 21.973C27.3763 22.4842 27.4302 22.9416 27.6723 23.2913C27.8876 23.6142 28.2642 23.8026 28.7216 23.8026L30.5781 23.9102C30.6319 23.9102 30.6857 23.9371 30.7126 23.9909C30.7395 24.0447 30.7395 24.0985 30.7395 24.1523C30.7126 24.233 30.6319 24.3138 30.5512 24.3138L28.6409 24.4214C27.5916 24.4752 26.4885 25.3093 26.0849 26.3317L25.9504 26.6814C25.9235 26.7352 25.9773 26.816 26.058 26.816H32.6498C32.7305 26.816 32.8112 26.7622 32.8112 26.6814C32.9189 26.2779 32.9996 25.8474 32.9996 25.39C32.9727 22.807 30.8472 20.6815 28.2373 20.6815V20.6815Z" fill="#042444"/>
</g>
<defs>
<clipPath id="clip0_17_2">
<rect width="42" height="42" fill="white"/>
</clipPath>
</defs>
</svg>
