<svg width="42" height="42" viewBox="0 0 42 42" fill="none" xmlns="http://www.w3.org/2000/svg">
<g clip-path="url(#clip0_17_34)">
<path d="M42 21C42 9.40202 32.598 0 21 0C9.40202 0 0 9.40202 0 21C0 32.598 9.40202 42 21 42C32.598 42 42 32.598 42 21Z" fill="#E7F0F7"/>
<path d="M12 14C10.9069 14 10 14.9069 10 16V27C10 28.0931 10.9069 29 12 29H30C31.0931 29 32 28.0931 32 27V16C32 14.9069 31.0931 14 30 14H12ZM12 16H30V27H12V16Z" fill="#042444"/>
<path d="M16 19V24H17V22H17.5C18.328 22 19 21.328 19 20.5C19 19.672 18.328 19 17.5 19H16ZM20 19V21V22V24H21V22H22V24H23V22V21V19H22V21H21V19H20ZM24 19V24H25V22H25.5C26.328 22 27 21.328 27 20.5C27 19.672 26.328 19 25.5 19H24ZM17 20H17.5C17.776 20 18 20.224 18 20.5C18 20.776 17.776 21 17.5 21H17V20ZM25 20H25.5C25.776 20 26 20.224 26 20.5C26 20.776 25.776 21 25.5 21H25V20Z" fill="#042444"/>
</g>
<defs>
<clipPath id="clip0_17_34">
<rect width="42" height="42" fill="white"/>
</clipPath>
</defs>
</svg>
