<svg width="42" height="42" viewBox="0 0 42 42" fill="none" xmlns="http://www.w3.org/2000/svg">
<g clip-path="url(#clip0_17_56)">
<path d="M42 21C42 9.40202 32.598 0 21 0C9.40202 0 0 9.40202 0 21C0 32.598 9.40202 42 21 42C32.598 42 42 32.598 42 21Z" fill="#E7F0F7"/>
<path d="M20.9292 12C16.0021 12 12 16.0031 12 20.9292C12 25.8563 16.0031 29.8594 20.9292 29.8594C25.8563 29.8594 29.8594 25.8563 29.8594 20.9292C29.8594 16.0021 25.8563 12 20.9292 12V12ZM25.9365 15.2896C26.648 15.9215 27.2358 16.6802 27.6698 17.5271C27.6854 17.699 27.701 17.8604 27.701 18.0417C27.701 18.8208 27.5573 19.6948 27.1177 20.7896L24.8365 27.3854C24.3885 27.6571 23.9138 27.8819 23.4198 28.0563V28.051L21.0625 21.5938L18.8031 28.1729C18.363 28.0441 17.9355 27.8754 17.526 27.6688L13.9844 17.9552C14.1719 17.526 14.3917 17.1125 14.6552 16.7208C14.7833 16.726 14.9125 16.7312 15.0198 16.7312C15.8198 16.7312 17.0646 16.6354 17.0646 16.6354C17.4781 16.6083 17.526 17.2146 17.1125 17.2625C17.1125 17.2625 16.7 17.3115 16.2375 17.3385L19.0229 25.6344L20.7031 20.6063L19.5115 17.3323C19.0927 17.3115 18.7063 17.2625 18.7063 17.2625C18.2875 17.2365 18.3417 16.6083 18.75 16.6354C18.75 16.6354 20.0156 16.7312 20.7677 16.7312C21.5719 16.7312 22.8063 16.6354 22.8063 16.6354C23.225 16.6083 23.274 17.2146 22.8604 17.2625C22.8604 17.2625 22.4417 17.3115 21.9802 17.3385L24.749 25.5708L25.5167 23.0156C25.9031 22.0229 26.1021 21.1969 26.1021 20.5417C26.1021 19.5979 25.7635 18.9375 25.4688 18.4271C25.0823 17.8 24.7115 17.2625 24.7115 16.6354C24.7115 15.9479 25.2219 15.326 25.9354 15.2885L25.9365 15.2896Z" fill="#042444"/>
</g>
<defs>
<clipPath id="clip0_17_56">
<rect width="42" height="42" fill="white"/>
</clipPath>
</defs>
</svg>
