<svg width="42" height="42" viewBox="0 0 42 42" fill="none" xmlns="http://www.w3.org/2000/svg">
<g clip-path="url(#clip0_17_16)">
<path d="M42 21C42 9.40202 32.598 0 21 0C9.40202 0 0 9.40202 0 21C0 32.598 9.40202 42 21 42C32.598 42 42 32.598 42 21Z" fill="#E7F0F7"/>
<path d="M17.8004 32.3L16.4004 29H12.9004L15.9004 23.8L17.6004 24.8L16.3004 27C17.0004 27 17.7004 27.4 18.0004 28L20.0004 24.6L21.7004 25.6L17.8004 32.3Z" fill="#042444"/>
<path d="M24.0996 32.3L20.0996 25.7L21.7996 24.7L23.7996 28.1C24.1996 27.5 24.7996 27.1 25.4996 27.1L24.1996 24.9L25.8996 23.9L28.8996 29.1H25.3996L24.0996 32.3Z" fill="#042444"/>
<path d="M21.0004 26.8C20.0004 26.8 19.2004 26.2 18.8004 25.2C18.8004 25.1 18.7004 25.1 18.6004 25C18.5004 25 18.5004 25 18.4004 25C17.6004 25.5 16.5004 25.5 15.7004 24.8C14.9004 24.2 14.7004 23.1 15.1004 22.2C15.1004 22.1 15.1004 22 15.1004 22C15.1004 22.1 15.1004 22 15.0004 22C14.0004 21.9 13.3004 21.1 13.1004 20.2C12.9004 19.3 13.4004 18.3 14.3004 17.8C14.4004 17.7 14.4004 17.7 14.4004 17.6C14.4004 17.6 14.4004 17.5 14.3004 17.4C13.6004 16.6 13.5004 15.6 14.0004 14.7C14.5004 13.8 15.5004 13.4 16.4004 13.6C16.5004 13.6 16.6004 13.6 16.6004 13.5C16.6004 13.5 16.7004 13.4 16.7004 13.3C16.7004 12.3 17.2004 11.4 18.2004 11.1C19.1004 10.8 20.1004 11 20.8004 11.8C20.9004 12 21.1004 12 21.2004 11.8C21.8004 11 22.8004 10.7 23.8004 11.1C24.7004 11.4 25.3004 12.3 25.3004 13.3C25.3004 13.4 25.3004 13.5 25.4004 13.5C25.5004 13.5 25.5004 13.6 25.6004 13.6C26.6004 13.4 27.5004 13.8 28.0004 14.7C28.5004 15.6 28.4004 16.6 27.7004 17.3C27.6004 17.4 27.6004 17.5 27.6004 17.5C27.6004 17.6 27.6004 17.6 27.7004 17.7C28.6004 18.2 29.0004 19.1 28.9004 20.1C28.8004 21.1 28.0004 21.9 27.1004 22C27.0004 22 26.9004 22.1 26.9004 22.1C26.9004 22.2 26.8004 22.2 26.9004 22.3C27.3004 23.2 27.0004 24.2 26.3004 24.9C25.5004 25.5 24.5004 25.6 23.6004 25.1C23.5004 25 23.4004 25.1 23.4004 25.1C23.4004 25.1 23.3004 25.2 23.2004 25.3C22.8004 26.2 22.0004 26.8 21.0004 26.8V26.8ZM18.6004 23.1C18.9004 23.1 19.1004 23.1 19.4004 23.2C20.1004 23.4 20.6004 24 20.8004 24.6C20.9004 24.8 21.2004 24.8 21.3004 24.6C21.5004 23.9 22.0004 23.4 22.7004 23.2C23.4004 23 24.1004 23 24.7004 23.4C24.8004 23.5 24.9004 23.5 25.0004 23.4C25.1004 23.3 25.1004 23.2 25.1004 23.1C24.8004 22.5 24.9004 21.7 25.2004 21.1C25.6004 20.5 26.2004 20.1 26.8004 20C26.9004 20 27.0004 19.9 27.0004 19.8C27.0004 19.7 27.0004 19.6 26.9004 19.5C26.3004 19.2 25.9004 18.6 25.7004 17.9C25.6004 17.2 25.8004 16.5 26.2004 16C26.3004 15.9 26.3004 15.8 26.2004 15.7C26.1004 15.6 26.0004 15.5 25.9004 15.6C25.2004 15.7 24.5004 15.6 24.0004 15.1C23.5004 14.6 23.2004 14 23.2004 13.3C23.2004 13.2 23.1004 13.1 23.0004 13C22.9004 13 22.8004 13 22.7004 13.1C21.8004 14.2 20.0004 14.2 19.1004 13.1C19.1004 13 19.0004 13 18.9004 13C18.8004 13 18.7004 13.1 18.7004 13.3C18.7004 14 18.4004 14.7 17.9004 15.1C17.4004 15.5 16.7004 15.7 16.0004 15.6C15.9004 15.6 15.8004 15.6 15.7004 15.7C15.7004 15.8 15.7004 15.9 15.8004 16C16.3004 16.5 16.5004 17.2 16.4004 17.9C16.3004 18.6 15.9004 19.2 15.2004 19.5C15.0004 19.6 15.0004 19.7 15.0004 19.8C15.0004 19.9 15.1004 20 15.2004 20C15.9004 20.1 16.5004 20.5 16.9004 21.1C17.3004 21.7 17.3004 22.4 17.0004 23.1C17.0004 23.2 17.0004 23.3 17.1004 23.4C17.2004 23.5 17.3004 23.5 17.4004 23.4C17.8004 23.2 18.2004 23.1 18.6004 23.1V23.1Z" fill="#042444"/>
<path d="M17.8008 18.9L20.5008 21.6L24.2008 17.9L22.8008 16.5L20.5008 18.8L19.2008 17.5L17.8008 18.9Z" fill="#042444"/>
</g>
<defs>
<clipPath id="clip0_17_16">
<rect width="42" height="42" fill="white"/>
</clipPath>
</defs>
</svg>
