<svg width="42" height="42" viewBox="0 0 42 42" fill="none" xmlns="http://www.w3.org/2000/svg">
<g clip-path="url(#clip0_17_44)">
<path d="M42 21C42 9.40202 32.598 0 21 0C9.40202 0 0 9.40202 0 21C0 32.598 9.40202 42 21 42C32.598 42 42 32.598 42 21Z" fill="#E7F0F7"/>
<path d="M15 12C12.8027 12 11 13.8027 11 16C11 17.8503 12.2842 19.4056 14 19.8555V29C14 29.5523 14.4477 30 15 30H18C18.5523 30 19 29.5523 19 29C19 28.4477 18.5523 28 18 28H16V26H17C17.5523 26 18 25.5523 18 25C18 24.4477 17.5523 24 17 24H16V19.8555C17.7158 19.4056 19 17.8503 19 16C19 13.8027 17.1973 12 15 12ZM15 14C16.1164 14 17 14.8836 17 16C17 17.1164 16.1164 18 15 18C13.8836 18 13 17.1164 13 16C13 14.8836 13.8836 14 15 14Z" fill="#042444"/>
<path fill-rule="evenodd" clip-rule="evenodd" d="M21 19C21 19.5523 21.4477 20 22 20H30C30.5523 20 31 19.5523 31 19V15C31 14.4477 30.5523 14 30 14H22C21.4477 14 21 14.4477 21 15V19ZM23 17C23 16.4477 23.4477 16 24 16H28C28.5523 16 29 16.4477 29 17C29 17.5523 28.5523 18 28 18H24C23.4477 18 23 17.5523 23 17Z" fill="#042444"/>
<path fill-rule="evenodd" clip-rule="evenodd" d="M22 22C21.4477 22 21 22.4477 21 23V27C21 27.5523 21.4477 28 22 28H30C30.5523 28 31 27.5523 31 27V23C31 22.4477 30.5523 22 30 22H22ZM23 25C23 24.4477 23.4477 24 24 24H28C28.5523 24 29 24.4477 29 25C29 25.5523 28.5523 26 28 26H24C23.4477 26 23 25.5523 23 25Z" fill="#042444"/>
</g>
<defs>
<clipPath id="clip0_17_44">
<rect width="42" height="42" fill="white"/>
</clipPath>
</defs>
</svg>
