<svg width="42" height="42" viewBox="0 0 42 42" fill="none" xmlns="http://www.w3.org/2000/svg">
<g clip-path="url(#clip0_17_51)">
<path d="M42 21C42 9.40202 32.598 0 21 0C9.40202 0 0 9.40202 0 21C0 32.598 9.40202 42 21 42C32.598 42 42 32.598 42 21Z" fill="#E7F0F7"/>
<path d="M12 13C11.448 13 11 13.448 11 14V16C11 16.552 11.448 17 12 17H30C30.552 17 31 16.552 31 16V14C31 13.448 30.552 13 30 13H12ZM14 14C14.552 14 15 14.448 15 15C15 15.552 14.552 16 14 16C13.448 16 13 15.552 13 15C13 14.448 13.448 14 14 14ZM12 25C11.448 25 11 25.448 11 26V28C11 28.552 11.448 29 12 29H30C30.552 29 31 28.552 31 28V26C31 25.448 30.552 25 30 25H12ZM14 26C14.552 26 15 26.448 15 27C15 27.552 14.552 28 14 28C13.448 28 13 27.552 13 27C13 26.448 13.448 26 14 26Z" fill="#042444"/>
<path fill-rule="evenodd" clip-rule="evenodd" d="M12 19C11.448 19 11 19.448 11 20V22C11 22.552 11.448 23 12 23H30C30.552 23 31 22.552 31 22V20C31 19.448 30.552 19 30 19H12ZM14 20C14.552 20 15 20.448 15 21C15 21.552 14.552 22 14 22C13.448 22 13 21.552 13 21C13 20.448 13.448 20 14 20Z" fill="#042444"/>
</g>
<defs>
<clipPath id="clip0_17_51">
<rect width="42" height="42" fill="white"/>
</clipPath>
</defs>
</svg>
