<svg width="42" height="42" viewBox="0 0 42 42" fill="none" xmlns="http://www.w3.org/2000/svg">
<g clip-path="url(#clip0_17_28)">
<path d="M42 21C42 9.40202 32.598 0 21 0C9.40202 0 0 9.40202 0 21C0 32.598 9.40202 42 21 42C32.598 42 42 32.598 42 21Z" fill="#E7F0F7"/>
<path d="M29.3476 12.0106C29.2079 11.9953 29.0634 11.9961 28.9179 12.0164C26.7468 12.3216 21.7025 13.1548 16.6991 18.9988H14.0566L11.3808 21.784C11.0088 22.156 10.8975 22.7111 11.0995 23.1981C11.3005 23.6851 11.7717 23.9988 12.2987 23.9988H14.5683L14.6718 24.1023C14.3986 24.4468 14.2441 24.8112 14.0898 25.2117C13.9017 25.6996 13.7452 26.2308 13.6152 26.7313C13.3551 27.7321 13.2011 28.6238 13.2011 28.6238L12.953 30.0281L14.3573 29.7801C14.3573 29.7801 15.2491 29.626 16.2499 29.366C16.7503 29.236 17.2816 29.0795 17.7695 28.8914C18.17 28.7371 18.5343 28.5826 18.8788 28.3094L18.9823 28.4129V30.6824C18.9823 31.2094 19.2961 31.6816 19.7831 31.8816C19.9481 31.9506 20.12 31.9813 20.289 31.9813C20.62 31.9813 20.94 31.8586 21.164 31.6336L23.9823 29.0652V26.282C29.8264 21.2787 30.6596 16.2344 30.9648 14.0633C31.1073 13.0448 30.3253 12.1175 29.3476 12.0106V12.0106ZM28.9355 14.0457C28.5783 16.5889 27.7731 21.5807 20.1073 26.7098L16.2714 22.8738C21.4005 15.208 26.3923 14.4029 28.9355 14.0457V14.0457ZM16.1308 25.5613L17.4198 26.8504C17.3128 26.907 17.1978 26.9687 17.0487 27.0262C16.6739 27.1707 16.2007 27.3104 15.746 27.4285C15.616 27.4623 15.6224 27.4533 15.498 27.4832C15.5279 27.3588 15.5189 27.3652 15.5527 27.2352C15.6708 26.7805 15.8105 26.3073 15.955 25.9324C16.0125 25.7834 16.0741 25.6684 16.1308 25.5613V25.5613Z" fill="#042444"/>
<path d="M23.2753 18.2917C23.4629 18.1041 23.7172 17.9988 23.9824 17.9988C24.2476 17.9988 24.502 18.1041 24.6895 18.2917C24.8771 18.4792 24.9824 18.7336 24.9824 18.9988C24.9824 19.264 24.8771 19.5183 24.6895 19.7059C24.502 19.8934 24.2476 19.9988 23.9824 19.9988C23.7172 19.9988 23.4629 19.8934 23.2753 19.7059C23.0878 19.5183 22.9824 19.264 22.9824 18.9988C22.9824 18.7336 23.0878 18.4792 23.2753 18.2917Z" fill="#042444"/>
<path d="M20.2753 21.2917C20.4629 21.1041 20.7172 20.9988 20.9824 20.9988C21.2476 20.9988 21.502 21.1041 21.6895 21.2917C21.8771 21.4792 21.9824 21.7336 21.9824 21.9988C21.9824 22.264 21.8771 22.5183 21.6895 22.7059C21.502 22.8934 21.2476 22.9988 20.9824 22.9988C20.7172 22.9988 20.4629 22.8934 20.2753 22.7059C20.0878 22.5183 19.9824 22.264 19.9824 21.9988C19.9824 21.7336 20.0878 21.4792 20.2753 21.2917Z" fill="#042444"/>
</g>
<defs>
<clipPath id="clip0_17_28">
<rect width="42" height="42" fill="white"/>
</clipPath>
</defs>
</svg>
