<svg width="42" height="42" viewBox="0 0 42 42" fill="none" xmlns="http://www.w3.org/2000/svg">
<g clip-path="url(#clip0_17_8)">
<path d="M42 21C42 9.40202 32.598 0 21 0C9.40202 0 0 9.40202 0 21C0 32.598 9.40202 42 21 42C32.598 42 42 32.598 42 21Z" fill="#E7F0F7"/>
<path d="M31 12L25.6992 12.8008L27.2422 14.3438L24.1777 17.4082L22.5684 15.9004L18.4922 20.0781L17.0078 18.5938L12.3027 23.2031L13.7031 24.6309L16.9922 21.4062L18.5078 22.9219L22.6309 18.6992L24.2227 20.1914L28.6562 15.7578L30.1992 17.3008L31 12ZM28 20V31H30V20H28ZM24 22V31H26V22H24ZM20 24V31H22V24H20ZM16 26V31H18V26H16ZM12 28V31H14V28H12Z" fill="#042444"/>
<path d="M28 20V31H30V20H28ZM24 22V31H26V22H24ZM20 24V31H22V24H20ZM16 26V31H18V26H16ZM12 28V31H14V28H12Z" fill="#042444"/>
</g>
<defs>
<clipPath id="clip0_17_8">
<rect width="42" height="42" fill="white"/>
</clipPath>
</defs>
</svg>
