<svg width="42" height="42" viewBox="0 0 42 42" fill="none" xmlns="http://www.w3.org/2000/svg">
<g clip-path="url(#clip0_17_59)">
<path d="M42 21C42 9.40202 32.598 0 21 0C9.40202 0 0 9.40202 0 21C0 32.598 9.40202 42 21 42C32.598 42 42 32.598 42 21Z" fill="#E7F0F7"/>
<path d="M11 15V29C11 30.1 11.9 31 13 31H27V29H13V15H11Z" fill="#042444"/>
<path fill-rule="evenodd" clip-rule="evenodd" d="M17 11C15.895 11 15 11.895 15 13V25C15 26.105 15.895 27 17 27H29C30.105 27 31 26.105 31 25V13C31 11.895 30.105 11 29 11H25H19H17ZM16.9999 12.9999H18.9999V20.9999L21.9999 19.4999L24.9999 20.9999V12.9999H28.9999V24.9999H16.9999V12.9999ZM20.9999 12.9999H22.9999V17.7636L22.8944 17.7109L21.9999 17.2636L21.1054 17.7109L20.9999 17.7636V12.9999Z" fill="#042444"/>
</g>
<defs>
<clipPath id="clip0_17_59">
<rect width="42" height="42" fill="white"/>
</clipPath>
</defs>
</svg>
