<svg width="42" height="42" viewBox="0 0 42 42" fill="none" xmlns="http://www.w3.org/2000/svg">
<g clip-path="url(#clip0_17_23)">
<path d="M42 21C42 9.40202 32.598 0 21 0C9.40202 0 0 9.40202 0 21C0 32.598 9.40202 42 21 42C32.598 42 42 32.598 42 21Z" fill="#E7F0F7"/>
<path d="M13 12C11.895 12 11 12.895 11 14V28C11 29.105 11.895 30 13 30H21.5488C21.4318 29.696 21.3288 29.3778 21.2461 29.0449C21.1633 28.712 21.0996 28.3645 21.0586 28H13V20H27H28H29V14C29 12.895 28.105 12 27 12H13ZM13 14H27V18H13V14ZM15 15C14.7348 15 14.4804 15.1054 14.2929 15.2929C14.1054 15.4804 14 15.7348 14 16C14 16.2652 14.1054 16.5196 14.2929 16.7071C14.4804 16.8946 14.7348 17 15 17C15.2652 17 15.5196 16.8946 15.7071 16.7071C15.8946 16.5196 16 16.2652 16 16C16 15.7348 15.8946 15.4804 15.7071 15.2929C15.5196 15.1054 15.2652 15 15 15ZM18 15C17.7348 15 17.4804 15.1054 17.2929 15.2929C17.1054 15.4804 17 15.7348 17 16C17 16.2652 17.1054 16.5196 17.2929 16.7071C17.4804 16.8946 17.7348 17 18 17C18.2652 17 18.5196 16.8946 18.7071 16.7071C18.8946 16.5196 19 16.2652 19 16C19 15.7348 18.8946 15.4804 18.7071 15.2929C18.5196 15.1054 18.2652 15 18 15ZM21 15V17H25V15H21Z" fill="#042444"/>
<path d="M23 24L27.5 22L32 24V27C32 30.915 28.78 32.743 27.5 33C26.22 32.743 23 30.915 23 27V24Z" fill="#042444"/>
</g>
<defs>
<clipPath id="clip0_17_23">
<rect width="42" height="42" fill="white"/>
</clipPath>
</defs>
</svg>
